PathFileType	4	(X/Y/Z)	C:\Users\Basilio\Documents\Thesis Gigler\squatting_fais\c3dfiles\039\SLS_pre_back3\markers_experimental.trc
DataRate	CameraRate	NumFrames	NumMarkers	Units	OrigDataRate	OrigDataStartFrame	OrigNumFrames
200.000000	200.000000	4	64	mm	200.000000	1359	2175
Frame#	Time	FHD			LBHD			RBHD			C7			T10			CLAV			LSHO			LUUPA			LMUPA			LDUPA			LLEP			LMEP			LRAD			LUL			LRFIN			RSHO			RUPA1			RMUPA			RDUPA			RLEP			RMEP			RRAD			RUL			RUFIN			LASI			RASI			USACR			LSACR			RSACR			LTHI1			LTHI2			LTHI3			LTHI4			LLFC			LMFC			LTIB1			LTIB2			LTIB3			LTIB4			LLMAL			LMMAL			LHEE			LMT1			LMT2			LMT5			RTHI			RTHI2			RTHI3			RTHI4			RLFC			RMFC			RTIB1			RTIB2			RTIB3			RTIB4			RLMAL			RMMAL			RHEE			RMT1			RMT2			RMT5			*61			*62			*63			
		X1	Y1	Z1	X2	Y2	Z2	X3	Y3	Z3	X4	Y4	Z4	X5	Y5	Z5	X6	Y6	Z6	X7	Y7	Z7	X8	Y8	Z8	X9	Y9	Z9	X10	Y10	Z10	X11	Y11	Z11	X12	Y12	Z12	X13	Y13	Z13	X14	Y14	Z14	X15	Y15	Z15	X16	Y16	Z16	X17	Y17	Z17	X18	Y18	Z18	X19	Y19	Z19	X20	Y20	Z20	X21	Y21	Z21	X22	Y22	Z22	X23	Y23	Z23	X24	Y24	Z24	X25	Y25	Z25	X26	Y26	Z26	X27	Y27	Z27	X28	Y28	Z28	X29	Y29	Z29	X30	Y30	Z30	X31	Y31	Z31	X32	Y32	Z32	X33	Y33	Z33	X34	Y34	Z34	X35	Y35	Z35	X36	Y36	Z36	X37	Y37	Z37	X38	Y38	Z38	X39	Y39	Z39	X40	Y40	Z40	X41	Y41	Z41	X42	Y42	Z42	X43	Y43	Z43	X44	Y44	Z44	X45	Y45	Z45	X46	Y46	Z46	X47	Y47	Z47	X48	Y48	Z48	X49	Y49	Z49	X50	Y50	Z50	X51	Y51	Z51	X52	Y52	Z52	X53	Y53	Z53	X54	Y54	Z54	X55	Y55	Z55	X56	Y56	Z56	X57	Y57	Z57	X58	Y58	Z58	X59	Y59	Z59	X60	Y60	Z60	X61	Y61	Z61	X62	Y62	Z62	X63	Y63	Z63	X64	Y64	Z64	

1360	6.795	-159.9293823242188	1472.660034179688	-668.7339477539064	-323.4403381347657	1460.281005859375	-785.6145019531252	-291.5895385742188	1459.453491210938	-647.4611206054689	-373.9656372070313	1305.763671875	-726.7727661132814	-474.7753906250001	1033.2509765625	-785.7463378906252	nan	nan	nan	-301.9104919433594	1321.761840820313	-881.8461914062502	-143.5845336914063	1288.284423828125	-1003.416687011719	-118.2511672973633	1317.748291015625	-971.8128662109377	-74.13616180419923	1296.14013671875	-1005.608337402344	-6.50953245162964	1301.322509765625	-1002.280700683594	-3.449727296829225	1229.565063476563	-973.8397216796877	272.3476562500001	1320.578002929688	-910.5712890625002	272.7204589843751	1333.95654296875	-985.8362426757815	347.7137451171876	1365.049682617188	-900.1072387695315	-246.9628906250001	1283.50537109375	-572.7962646484376	-90.61160278320314	1206.438842773438	-478.5906677246095	-63.47447586059572	1242.616333007813	-499.2389221191407	-20.95966720581055	1204.755249023438	-479.4785461425782	42.27428817749024	1220.251831054688	-489.3769836425782	47.89299774169923	1159.383911132813	-536.3599853515626	325.4197998046876	1282.609252929688	-578.1221923828126	331.2590026855469	1264.323120117188	-504.0899963378907	405.8489685058595	1326.651000976563	-572.9592895507814	-397.3173828125001	810.9139404296877	-897.2095947265627	-396.9888916015626	833.7344970703127	-677.0748901367189	-552.9182128906251	917.1152954101565	-792.355163574219	-567.6265258789064	885.2471313476565	-815.8109130859377	-568.5504760742189	891.857604980469	-757.2787475585939	-429.5184020996095	567.0492553710939	-1012.743041992188	-377.7672424316407	503.1580200195314	-1038.610473632813	-330.9657592773438	512.1473999023439	-1032.847900390625	-388.9341430664064	441.430389404297	-1030.862182617188	-365.8073425292969	362.8382873535157	-1035.739990234375	-327.8540649414063	310.0133666992188	-935.2681884765627	-451.4805603027345	261.2910156250001	-998.1090087890627	-508.0941772460939	330.8561401367188	-1009.015808105469	-505.6986083984376	287.2608337402344	-1006.135803222656	-567.7299194335939	271.4137573242188	-946.450134277344	-745.3469238281251	314.7898864746094	-917.114929199219	-711.7220458984376	285.2167968750001	-841.6375732421877	-735.5247802734376	383.9163513183594	-869.8071289062502	-824.2475585937502	178.2645416259766	-801.7784423828127	-849.4265747070315	186.4831085205078	-834.7193603515627	-881.3537597656252	243.0564575195313	-865.3375244140627	-315.9815368652344	634.2351684570314	-608.4682006835939	-249.4367980957032	627.3422241210939	-610.1007690429689	-229.4947204589844	653.3369750976564	-618.2563476562501	-209.5844421386719	553.0747680664064	-619.9844360351564	-159.0930480957032	453.590301513672	-662.0088500976564	-137.8656616210938	471.187469482422	-772.0256347656252	-193.9209289550782	269.2232971191407	-721.2620849609376	-296.2472229003907	238.9473724365235	-707.2443237304689	-257.6490173339844	216.2429199218751	-720.0733642578126	-264.4897155761719	171.9397277832032	-761.2390136718751	-360.8901062011719	112.1585693359375	-743.9072875976564	-334.9680480957032	132.8253936767578	-829.4650878906252	-439.9065246582032	96.69887542724612	-794.8125000000002	-214.4891357421876	52.83663177490236	-809.5317993164065	-217.3733978271485	56.80052185058595	-763.1979370117189	-272.8704528808594	38.57485580444337	-711.6409301757814	nan	nan	nan	nan	nan	nan	nan	nan	nan	
1361	6.8	-159.9151458740235	1472.388671875	-668.4016113281251	-323.5114135742188	1459.903442382813	-785.388610839844	-291.4787902832032	1458.780395507813	-647.3146362304689	-373.9420471191407	1305.460571289063	-726.6964111328126	-474.8920288085939	1033.104614257813	-785.871520996094	nan	nan	nan	-301.7930908203126	1321.320190429688	-881.8314208984377	-143.4933013916016	1287.575927734375	-1003.199279785156	-117.9194259643555	1316.985107421875	-971.7188720703127	-73.85201263427736	1295.323364257813	-1005.154418945313	-6.326208591461183	1300.743286132813	-1001.984985351563	-3.318397998809815	1228.8154296875	-973.6578369140627	272.6292419433594	1319.83203125	-910.1782836914065	272.9762268066407	1333.076904296875	-985.578308105469	347.8380126953126	1364.369506835938	-899.652526855469	-247.0601196289063	1283.11767578125	-572.6065063476564	-90.81148529052736	1205.68359375	-478.3857727050782	-63.54356384277345	1242.023681640625	-499.073699951172	-21.09716033935547	1204.282958984375	-479.4653320312501	41.99187469482423	1219.630859375	-489.1084594726564	47.41126251220704	1158.789916992188	-536.7991943359376	325.4828186035157	1281.903930664063	-577.7412719726564	330.9370422363282	1263.253662109375	-504.1363220214845	405.7393188476564	1325.72265625	-572.6895751953126	-397.4458618164064	810.6833496093752	-897.175964355469	-397.4193725585939	833.5256347656252	-677.0166625976564	-553.0708618164064	916.8288574218752	-792.4793090820315	-567.7789306640626	885.043884277344	-816.0274047851565	-568.9143676757814	891.7310180664065	-757.4871826171876	-429.5113830566407	567.1210327148439	-1013.060729980469	-377.8077697753907	503.1356506347657	-1039.161987304688	-331.0339050292969	512.4672241210939	-1033.378173828125	-389.025360107422	441.537322998047	-1031.4580078125	-365.6146545410157	362.9085083007813	-1036.50341796875	-328.3442382812501	308.8699340820313	-936.8441162109377	-451.4884643554689	261.3026733398438	-999.296081542969	-508.1282653808595	330.8483276367188	-1010.039489746094	-505.7426147460939	287.2664489746094	-1007.306091308594	-567.7553100585939	271.1102294921876	-947.678161621094	-745.4252319335939	314.3343505859376	-918.4624023437502	-711.9028930664064	284.5264587402344	-843.424255371094	-735.7830200195314	383.4163513183594	-871.0305786132815	-824.251892089844	178.1909332275391	-803.4016113281252	-849.7143554687502	185.5711212158203	-836.5811157226565	-881.2482910156252	242.236801147461	-867.300231933594	-316.2613830566407	634.1397094726564	-608.3199462890626	-249.8109741210938	627.3026123046876	-609.8174438476564	-229.9087371826172	653.2771606445314	-617.9679565429689	-209.9086151123047	553.0780029296876	-619.6996459960939	-159.2958221435547	453.6417541503907	-661.6646118164064	-137.9749450683594	471.1082763671876	-771.634948730469	-194.0582733154297	269.2243652343751	-720.9901123046876	-296.3119201660157	238.9724578857422	-707.1317138671876	-257.7368469238282	216.1734008789063	-719.8994140625001	-264.5018310546876	171.9519195556641	-761.0574340820314	-360.9040832519532	112.0939483642578	-743.8081665039064	-335.1114807128907	132.5693359375	-829.447692871094	-439.8751525878907	96.67124938964847	-794.8414306640627	-214.4817962646485	52.89239883422853	-809.5411376953127	-217.4098663330079	56.78155899047853	-763.1308593750001	-272.8934326171876	38.56207275390626	-711.6210937500001	nan	nan	nan	nan	nan	nan	nan	nan	nan	
1362	6.805	-159.9413757324219	1471.990844726563	-668.1839599609376	-323.2598571777344	1459.588623046875	-785.2385864257815	-291.5310974121094	1458.355102539063	-647.0717773437501	-373.9830017089844	1305.162353515625	-726.7365722656251	-475.0903625488282	1032.952026367188	-785.9687500000002	nan	nan	nan	-301.7950134277344	1320.838012695313	-881.7266235351565	-143.2831420898438	1287.084838867188	-1003.250305175781	-117.7515335083008	1316.371826171875	-971.5922851562502	-73.76206207275392	1294.973510742188	-1005.315795898438	-5.986337661743165	1299.99072265625	-1001.81591796875	-3.12532925605774	1228.13134765625	-973.4551391601565	272.6028747558594	1319.2373046875	-909.8638916015627	273.1591491699219	1332.3330078125	-985.227478027344	347.9945373535157	1363.681762695313	-899.0677490234377	-247.1089935302735	1282.709106445313	-572.5007324218751	-91.11000061035158	1205.140258789063	-478.2206115722657	-63.77681732177736	1241.307373046875	-499.1978759765626	-21.42897415161133	1203.637084960938	-479.1759338378907	41.68444442749024	1219.069213867188	-488.9047851562501	47.22319793701173	1158.398559570313	-536.7119750976564	325.2473754882813	1281.136108398438	-577.5767822265626	330.7448425292969	1262.5	-503.9312438964845	405.5929565429689	1324.967163085938	-572.3997802734376	-397.5691833496095	810.5231933593752	-897.1143798828127	-397.8248901367189	833.329284667969	-676.8652343750001	-553.3214721679689	916.646423339844	-792.6152343750002	-567.8856811523439	884.9278564453127	-816.207702636719	-569.2155761718751	891.3953857421877	-757.6091918945314	-429.5252075195314	567.1339111328126	-1013.358947753906	-377.8512573242188	503.2457885742189	-1039.629150390625	-330.9865722656251	512.4795532226564	-1033.836303710938	-388.9573059082032	441.5538330078126	-1031.971557617188	-365.6087951660157	363.0818481445313	-1037.24365234375	-327.6810607910157	309.6164245605469	-937.1967773437502	-451.5222473144532	261.4846801757813	-1000.584838867188	-507.8167724609376	330.5919494628907	-1011.087341308594	-505.5198974609376	287.5586242675782	-1008.380676269531	-567.8582153320314	270.8266296386719	-948.973083496094	-745.5078735351564	313.9378051757813	-919.894714355469	-711.8964843750001	283.4136657714844	-844.6863403320315	-736.0465698242189	382.8032531738282	-872.2200927734377	-824.7098388671877	176.8463287353516	-805.7077636718752	-849.6870727539065	185.0757141113282	-838.729187011719	-881.6027832031252	241.5872802734376	-869.3624267578127	-316.6244812011719	634.0136108398439	-608.1711425781251	-249.9874877929688	626.9106445312501	-609.6363525390626	-230.2780914306641	653.0664062500001	-617.5775146484376	-210.3112945556641	553.0278320312501	-619.3065795898439	-159.4571075439453	453.6449279785157	-661.3168334960939	-137.887939453125	471.1900634765626	-771.3682250976565	-194.1994323730469	269.1687622070313	-720.7377929687501	-296.3850402832032	238.9500274658204	-706.9904174804689	-257.7822265625001	216.1810302734376	-719.6532592773439	-264.5419311523438	171.9260406494141	-760.8970336914064	-360.9058837890626	112.042594909668	-743.7427978515626	-334.9299621582032	132.8800048828125	-829.360046386719	-439.8767395019532	96.63043212890628	-794.8382568359377	-214.3887023925782	52.79005432128908	-809.5639648437502	-217.4096374511719	56.76504516601564	-763.1472167968751	-272.9256896972657	38.5394401550293	-711.5894775390626	nan	nan	nan	nan	nan	nan	nan	nan	nan	
1363	6.81	-159.974838256836	1471.76953125	-667.9154663085939	-323.3087768554688	1459.281372070313	-785.1820068359377	-291.5651855468751	1457.916748046875	-646.9340209960939	-373.9877319335938	1304.742065429688	-726.5853271484376	-475.1756896972657	1032.687377929688	-786.114929199219	nan	nan	nan	-302.0624694824219	1320.439086914063	-881.8999633789065	-143.050277709961	1286.405029296875	-1003.128356933594	-117.6141662597657	1315.614868164063	-971.5374755859377	-73.7924270629883	1294.558715820313	-1004.993225097656	-5.886717796325684	1299.245727539063	-1001.848937988281	-2.967158317565918	1227.396850585938	-973.1843261718752	272.5914001464844	1318.440185546875	-909.5689697265627	273.3224487304688	1331.281860351563	-984.8046875000002	348.0459289550782	1362.820922851563	-898.734558105469	-247.2876586914063	1282.343505859375	-572.3157348632814	-91.28306579589845	1204.632934570313	-478.0066528320314	-63.67810821533205	1241.199340820313	-498.5770263671876	-21.82332992553711	1203.013793945313	-479.0007324218751	41.51581954956055	1218.595947265625	-488.7252807617189	46.96479797363282	1156.99853515625	-536.2661743164064	325.0390319824219	1280.366821289063	-577.4138183593751	330.6310119628907	1261.975830078125	-503.7324523925782	405.468963623047	1324.37841796875	-572.1027221679689	-397.7409057617189	810.3771972656252	-897.1420898437502	-398.2226867675782	833.2148437500002	-676.8297729492189	-553.4421997070314	916.3797607421877	-792.7518310546877	-567.9993896484376	884.7796020507815	-816.4379882812502	-569.5751953125001	891.172790527344	-757.8574829101564	-429.6948852539064	567.1552734375001	-1013.781677246094	-377.9103393554688	503.3816833496095	-1040.138427734375	-331.0393371582032	512.6358642578126	-1034.298706054688	-389.5176391601564	441.5816650390626	-1032.812255859375	-365.6199340820313	363.2984313964844	-1038.103271484375	-328.0525512695313	309.2889404296876	-938.2208251953127	-451.3935852050782	261.3949279785157	-1001.745849609375	-508.0499877929689	330.6526489257813	-1012.260986328125	-505.6311340332032	287.0303649902344	-1009.604370117188	-567.8548583984376	270.5986938476563	-950.1889648437502	-745.4432373046876	313.3086242675782	-921.365173339844	-712.3311767578126	283.3977661132813	-845.9045410156252	-736.2664184570314	382.1883239746094	-873.5080566406252	-824.9232177734377	175.9174499511719	-807.977478027344	-849.6849365234377	184.993881225586	-840.548034667969	-881.6368408203127	240.7572784423829	-871.4102783203127	-317.0420532226563	634.0493164062501	-607.9772949218751	-250.3701324462891	627.0095825195314	-609.5515136718751	-230.5043487548829	653.0432739257814	-617.3325805664064	-210.6160125732422	552.9541625976564	-619.0482177734376	-159.6109161376953	453.6147460937501	-661.0948486328126	-137.9388275146485	471.0046691894532	-770.9761962890627	-194.3227844238282	269.1086730957032	-720.4126586914064	-296.5861816406251	238.9863433837891	-706.8186645507814	-257.8453063964844	216.2006530761719	-719.4776611328126	-264.6274108886719	171.8846282958985	-760.7003173828126	-360.9545288085938	112.0109558105469	-743.7281494140626	-335.1250610351563	132.5829772949219	-829.4126586914065	-439.8923950195314	96.63232421875003	-794.8203125000002	-214.3051757812501	52.99177551269533	-809.3892211914065	-217.4046783447266	56.75783157348634	-763.1175537109376	-272.9198608398438	38.53436279296876	-711.5073242187501	nan	nan	nan	nan	nan	nan	nan	nan	nan	
